<svg xmlns="http://www.w3.org/2000/svg" viewBox="0 0 24 24" fill="#111827">
  <path d="M12 18a1 1 0 0 1 1 1v2a1 1 0 1 1-2 0v-2a1 1 0 0 1 1-1Zm0-15a1 1 0 0 1 1 1v2a1 1 0 1 1-2 0V4a1 1 0 0 1 1-1Zm8 8a1 1 0 1 1 0 2h-2a1 1 0 1 1 0-2h2ZM6 12a1 1 0 0 1-1 1H3a1 1 0 1 1 0-2h2a1 1 0 0 1 1 1Zm10.95 5.536a1 1 0 0 1 1.414 0l1.414 1.414a1 1 0 1 1-1.414 1.414l-1.414-1.414a1 1 0 0 1 0-1.414ZM5.636 4.222a1 1 0 0 1 1.414 0L8.464 5.636A1 1 0 1 1 7.05 7.05L5.636 5.636a1 1 0 0 1 0-1.414Zm12.728 0a1 1 0 0 1 0 1.414L16.95 7.05a1 1 0 0 1-1.414-1.414l1.414-1.414a1 1 0 0 1 1.414 0ZM7.05 16.95a1 1 0 0 1 0 1.414l-1.414 1.414a1 1 0 1 1-1.414-1.414l1.414-1.414a1 1 0 0 1 1.414 0ZM12 8a4 4 0 1 1 0 8 4 4 0 0 1 0-8Z" />
</svg>
